#N canvas 0 52 958 1026 10;
#X obj 56 47 inlet;
#X obj 148 48 inlet;
#X obj 148 69 f \$1;
#X obj 186 48 inlet;
#X obj 186 69 f \$2;
#X obj 56 115 normalR;
#X obj 22 115 f 0;
#X obj 22 262 outlet;
#X obj 110 48 inlet;
#X obj 110 69 t b;
#X msg 22 92 0;
#X text 53 8 nondegenerate AR1 process (bang \, reset \, half-life
\, stationary volatility);
#X obj 188 111 expr pow(2 \, -1/$f1);
#X obj 188 133 f;
#X text 213 131 phi;
#X obj 188 178 f;
#X text 214 179 eps;
#X obj 22 149 *;
#X obj 56 194 *;
#X obj 22 210 +;
#X obj 22 234 t f f;
#X obj 188 157 expr $f2*sqrt(1 - $f1*$f1);
#X obj 225 48 loadbang;
#X obj 56 93 t b b b;
#X obj 225 69 t b b;
#X connect 0 0 23 0;
#X connect 1 0 2 0;
#X connect 2 0 12 0;
#X connect 3 0 4 0;
#X connect 4 0 21 1;
#X connect 5 0 18 0;
#X connect 6 0 17 0;
#X connect 8 0 9 0;
#X connect 9 0 10 0;
#X connect 10 0 6 0;
#X connect 12 0 13 0;
#X connect 13 0 17 1;
#X connect 13 0 21 0;
#X connect 15 0 18 1;
#X connect 17 0 19 0;
#X connect 18 0 19 1;
#X connect 19 0 20 0;
#X connect 20 0 7 0;
#X connect 20 1 6 1;
#X connect 21 0 15 0;
#X connect 22 0 24 0;
#X connect 23 0 6 0;
#X connect 23 1 5 0;
#X connect 23 2 13 0;
#X connect 24 0 2 0;
#X connect 24 1 4 0;
