#N canvas 0 52 958 1026 10;
#X obj 82 43 inlet;
#X obj 137 43 inlet;
#X obj 193 43 inlet;
#X obj 136 72 f \$1;
#X obj 193 72 f \$2;
#X obj 82 72 t b b;
#X obj 175 97 gammaR \$2;
#X obj 103 97 gammaR \$1;
#X obj 103 120 expr $f1/($f1+$f2);
#X obj 103 143 outlet;
#X text 79 20 beta random variate with alpha \, beta >= 1;
#X obj 247 43 loadbang;
#X connect 0 0 5 0;
#X connect 1 0 3 0;
#X connect 2 0 4 0;
#X connect 3 0 7 1;
#X connect 4 0 6 1;
#X connect 5 0 7 0;
#X connect 5 1 6 0;
#X connect 6 0 8 1;
#X connect 7 0 8 0;
#X connect 8 0 9 0;
#X connect 11 0 3 0;
#X connect 11 0 4 0;
