#N canvas 0 52 1918 1026 10;
#X obj 63 62 inlet;
#X obj 145 62 inlet;
#X obj 145 107 f \$1;
#X obj 53 107 t b b;
#X obj 183 62 inlet;
#X obj 183 107 f \$2;
#X obj 81 153 *;
#X obj 53 129 normalR;
#X obj 81 177 +;
#X obj 52 177 f 0;
#X obj 52 200 +;
#X obj 52 221 outlet;
#X obj 107 62 inlet;
#X obj 107 107 t b;
#X msg 52 153 0;
#X text 56 9 brownian motion (bang \, reset \, drift \, volatility)
;
#X obj 222 62 loadbang;
#X connect 0 0 3 0;
#X connect 1 0 2 0;
#X connect 2 0 8 1;
#X connect 3 0 9 0;
#X connect 3 1 7 0;
#X connect 4 0 5 0;
#X connect 5 0 6 1;
#X connect 6 0 8 0;
#X connect 7 0 6 0;
#X connect 8 0 10 1;
#X connect 9 0 10 0;
#X connect 10 0 9 1;
#X connect 10 0 11 0;
#X connect 12 0 13 0;
#X connect 13 0 14 0;
#X connect 14 0 9 0;
#X connect 16 0 2 0;
#X connect 16 0 5 0;
