#N canvas 0 52 958 1026 10;
#X obj 17 210 gammaP 1 100;
#X obj 17 232 t b b b b b;
#X obj 119 273 ar1 1 1;
#X obj 17 139 route reset;
#X obj 17 182 t b;
#X obj 17 117 inlet ctl;
#X obj 51 162 inlet arrival_alpha;
#X obj 85 182 inlet arrival_mu;
#X obj 117 232 inlet seek_hl;
#X obj 148 252 inlet seek_sigma;
#X obj 103 212 inlet seek_mu;
#X obj 119 294 +;
#X obj 214 118 inlet dur_alpha;
#X obj 227 137 inlet dur_scale;
#X obj 240 158 gammaR 10;
#X obj 239 178 *;
#X obj 328 118 inlet gain_mu;
#X obj 332 137 inlet gain_sigma;
#X obj 339 158 normalR;
#X obj 339 178 *;
#X obj 339 198 +;
#X obj 439 117 inlet pan_l;
#X obj 445 136 inlet pan_r;
#X obj 198 331 pack f f f f f;
#X obj 16 275 f 0;
#X obj 41 275 + 1;
#X msg 42 254 0;
#X obj 105 139 t b b;
#X text 14 8 A single stochastic grain cloud.;
#X obj 452 157 betaR 1 1;
#X text 13 34 Creation args: number of grains \, buffer name.;
#X text 14 64 Inlets: ctl \, arrival_alpha \, arrival_mu \, seek_mu
\, seek_hl \, seek_sigma \, dur_alpha \, dur_scale \, gain_mu \, gain_sigma
\, pan_l \, pan_r;
#X obj 41 317 select \$1;
#X obj 197 374 outlet~;
#X obj 246 374 outlet~;
#X obj 198 353 clone grain~ \$1 \$2;
#X obj 41 296 t f f;
#X connect 0 0 1 0;
#X connect 1 0 24 0;
#X connect 1 1 2 0;
#X connect 1 2 14 0;
#X connect 1 3 18 0;
#X connect 1 4 29 0;
#X connect 2 0 11 0;
#X connect 3 0 27 0;
#X connect 3 1 4 0;
#X connect 4 0 0 0;
#X connect 5 0 3 0;
#X connect 6 0 0 1;
#X connect 7 0 0 2;
#X connect 8 0 2 2;
#X connect 9 0 2 3;
#X connect 10 0 11 1;
#X connect 11 0 23 1;
#X connect 12 0 14 1;
#X connect 13 0 15 1;
#X connect 14 0 15 0;
#X connect 15 0 23 2;
#X connect 16 0 20 1;
#X connect 17 0 19 1;
#X connect 18 0 19 0;
#X connect 19 0 20 0;
#X connect 20 0 23 3;
#X connect 21 0 29 1;
#X connect 22 0 29 2;
#X connect 23 0 35 0;
#X connect 24 0 25 0;
#X connect 24 0 23 0;
#X connect 25 0 36 0;
#X connect 26 0 24 1;
#X connect 27 0 26 0;
#X connect 27 1 2 1;
#X connect 29 0 23 4;
#X connect 32 0 26 0;
#X connect 35 0 33 0;
#X connect 35 1 34 0;
#X connect 36 0 32 0;
#X connect 36 1 24 1;
