#N canvas 0 52 958 1026 10;
#X obj 117 84 inlet;
#X obj 195 82 inlet;
#X obj 195 106 f \$1;
#X obj 82 142 f 0;
#X obj 82 171 outlet;
#X text 79 56 simple EMA (second inlet / creation arg is alpha);
#X obj 117 108 t b b f;
#X obj 117 142 expr $f3*$f2 + (1-$f3)*$f1;
#X obj 237 82 loadbang;
#X connect 0 0 6 0;
#X connect 1 0 2 0;
#X connect 2 0 7 2;
#X connect 3 0 4 0;
#X connect 3 0 7 0;
#X connect 6 0 3 0;
#X connect 6 1 7 0;
#X connect 6 2 7 1;
#X connect 7 0 3 1;
#X connect 8 0 2 0;
