#N canvas 0 52 958 1026 10;
#X obj 75 169 expR;
#X obj 60 198 +;
#X obj 97 46 inlet;
#X msg 53 107 0;
#X obj 220 177 inlet;
#X obj 97 107 until;
#X obj 163 200 + 1;
#X obj 97 263 spigot;
#X obj 97 318 outlet;
#X obj 52 132 f;
#X obj 163 132 f;
#X obj 220 199 f \$1;
#X obj 97 289 t f b;
#X text 57 14 standard erlang random variate (shape parameter as right
inlet / creation argument);
#X obj 97 78 t b b b;
#X obj 97 132 t b b b;
#X obj 163 224 >=;
#X msg 163 107 1;
#X obj 260 177 loadbang;
#X connect 0 0 1 1;
#X connect 1 0 9 1;
#X connect 1 0 7 0;
#X connect 2 0 14 0;
#X connect 3 0 9 1;
#X connect 4 0 11 0;
#X connect 5 0 15 0;
#X connect 6 0 10 1;
#X connect 6 0 16 0;
#X connect 7 0 12 0;
#X connect 9 0 1 0;
#X connect 10 0 6 0;
#X connect 11 0 16 1;
#X connect 12 0 8 0;
#X connect 12 1 5 1;
#X connect 14 0 5 0;
#X connect 14 1 3 0;
#X connect 14 2 17 0;
#X connect 15 0 9 0;
#X connect 15 1 10 0;
#X connect 15 2 0 0;
#X connect 16 0 7 1;
#X connect 17 0 10 1;
#X connect 18 0 11 0;
