#N canvas 0 52 958 1026 10;
#X obj 60 36 inlet;
#X obj 143 35 inlet;
#X obj 143 57 f \$1;
#X obj 142 80 moses 2;
#X obj 144 198 f;
#X text 170 197 beta;
#X obj 205 198 f;
#X text 230 197 K;
#X obj 123 105 expr 1/$f1;
#X obj 123 125 expr exp(1-$f1)*pow($f1 \, $f1-1);
#X obj 148 150 expr (floor($f1)-1)/($f1-1);
#X obj 148 170 expr exp(floor($f1)-$f1)*pow($f1-1 \, $f1-floor($f1))
;
#X obj 60 124 erlangR;
#X obj 60 146 /;
#X obj 29 170 uniformR;
#X obj 60 56 t b;
#X obj 59 77 until;
#X obj 59 97 t b b;
#X obj 29 191 <;
#X obj 29 213 spigot;
#X obj 29 234 t f b;
#X obj 29 255 outlet;
#X text 86 272 rejection sampling after Martino & Luengo (arXiv: 1304.3800)
;
#X obj 145 230 expr (pow($f1 \, $f2-1)*exp(-$f1)) / ($f4*pow($f1 \,
floor($f2)-1)*exp(-$f3*$f1));
#X text 34 4 standard gamma random variate with alpha>=1 (shape parameter
as right inlet / creation argument);
#X obj 181 35 loadbang;
#X connect 0 0 15 0;
#X connect 1 0 2 0;
#X connect 2 0 3 0;
#X connect 2 0 12 1;
#X connect 2 0 23 1;
#X connect 3 0 8 0;
#X connect 3 0 9 0;
#X connect 3 1 10 0;
#X connect 3 1 11 0;
#X connect 4 0 13 1;
#X connect 4 0 23 2;
#X connect 6 0 23 3;
#X connect 8 0 4 0;
#X connect 9 0 6 0;
#X connect 10 0 4 0;
#X connect 11 0 6 0;
#X connect 12 0 13 0;
#X connect 13 0 19 0;
#X connect 13 0 23 0;
#X connect 14 0 18 0;
#X connect 15 0 16 0;
#X connect 16 0 17 0;
#X connect 17 0 14 0;
#X connect 17 1 12 0;
#X connect 18 0 19 1;
#X connect 19 0 20 0;
#X connect 20 0 21 0;
#X connect 20 1 16 1;
#X connect 23 0 18 1;
#X connect 25 0 2 0;
