#N canvas 0 52 958 1026 10;
#X obj 63 32 inlet;
#X obj 105 32 inlet;
#X obj 105 64 f \$1;
#X obj 54 99 gammaR \$1;
#X obj 54 152 delay;
#X obj 53 77 t b b;
#X obj 54 173 outlet;
#X obj 143 32 inlet;
#X obj 143 64 f \$2;
#X obj 81 123 *;
#X text 53 8 gamma point process (bang \, shape \, mean);
#X obj 143 99 /;
#X obj 181 32 loadbang;
#X obj 180 55 t b b;
#X connect 0 0 5 0;
#X connect 1 0 2 0;
#X connect 2 0 3 1;
#X connect 2 0 11 1;
#X connect 3 0 9 0;
#X connect 4 0 5 0;
#X connect 4 0 6 0;
#X connect 5 0 4 0;
#X connect 5 1 3 0;
#X connect 7 0 8 0;
#X connect 8 0 11 0;
#X connect 9 0 4 1;
#X connect 11 0 9 1;
#X connect 12 0 13 0;
#X connect 13 0 8 0;
#X connect 13 1 2 0;
