#N canvas 960 316 958 232 10;
#X obj 47 43 soundfiler;
#N canvas 0 50 450 250 (subpatch) 0;
#X array buf 1e+07 float 2;
#X coords 0 1 1e+07 -1 200 140 1 0 0;
#X restore 201 19 graph;
#X obj 47 179 gammaP 4 100;
#X obj 48 280 +;
#X obj 78 281 hsl 128 15 0 240 0 1 empty empty empty -2 -8 0 10 -262144
-1 -1 0 1;
#X obj 285 255 normalR;
#X obj 285 276 * 10;
#X obj 211 255 erlangR 10;
#X obj 211 279 * 10;
#X obj 336 256 betaR 5 5;
#X obj 47 208 t b b b b b;
#X obj 307 217 dac~;
#X obj 23 142 bng 15 250 50 0 empty empty empty 17 7 0 10 -262144 -1
-1;
#X msg 47 20 read test.wav buf;
#X obj 63 233 bng 15 250 50 0 empty empty empty 17 7 0 10 -262144 -1
-1;
#X obj 48 254 ar1 100 10;
#X obj 10 255 vsl 15 128 0.1 1000 1 1 empty empty empty 0 -9 0 10 -262144
-1 -1 3200 1;
#X obj 28 255 vsl 15 128 0.1 10 1 1 empty empty empty 0 -9 0 10 -262144
-1 -1 4450 1;
#X obj 83 322 f 0;
#X obj 109 322 + 1;
#X msg 108 302 0;
#X obj 83 341 t f f;
#X obj 397 258 vsl 15 128 1 10 1 1 empty empty empty 0 -9 0 10 -262144
-1 -1 10450 1;
#X obj 209 232 nbx 5 14 1 1e+37 0 1 empty empty empty 0 -8 0 10 -262144
-1 -1 20 256;
#X obj 81 162 nbx 5 14 1 100 0 1 empty empty empty 0 -8 0 10 -262144
-1 -1 27 256;
#X obj 129 180 hsl 128 15 10 1000 1 1 empty empty empty -2 -8 0 10
-262144 -1 -1 2050 1;
#X obj 316 278 vsl 15 128 0 10 0 1 empty empty empty 0 -9 0 10 -262144
-1 -1 1600 1;
#X obj 286 296 - 10;
#X obj 82 383 pack f f f f f;
#X obj 16 476 until;
#X obj 16 498 f 0;
#X obj 37 498 + 1;
#X obj 16 439 bng 15 250 50 0 empty empty empty 17 7 0 10 -262144 -1
-1;
#X obj 110 362 select;
#X obj 63 498 select;
#X obj 239 483 bng 15 250 50 0 empty empty empty 17 7 0 10 -262144
-1 -1;
#X obj 82 405 s \$0-in;
#X obj 307 173 catch~ \$0-outL;
#X obj 328 192 catch~ \$0-outR;
#X obj 16 520 pack f f;
#X obj 16 456 t b b;
#X obj 77 519 f \$0;
#X text 35 436 <- populate;
#X text 264 484 <- clear;
#X text 179 444 <- #grains - 1;
#X msg 64 476 0;
#X msg 15 544 obj 0 0 grain buf \$2-in \$2-outL \$2-outR \$1;
#X msg 239 504 clear;
#X obj 302 521 s pd-\$0-grains;
#N canvas 0 52 958 1026 \$0-grains 1;
#X obj 16 76 until;
#X obj 16 98 f 0;
#X obj 37 98 + 1;
#X obj 63 98 select;
#X obj 114 98 bng 15 250 50 0 empty empty empty 17 7 0 10 -262144 -1
-1;
#X obj 16 120 pack f f;
#X obj 16 56 t b b;
#X obj 77 119 f \$0;
#X text 139 99 <- clear;
#X msg 64 76 0;
#X msg 16 149 obj 0 0 grain buf \$2-in \$2-outL \$2-outR \$1;
#X msg 114 119 clear;
#X obj 16 177 s pd-\$0-grains;
#N canvas 960 52 958 232 \$0-grains 1;
#X restore 16 6 pd \$0-grains;
#X obj 96 57 f \$1;
#X obj 97 6 loadbang;
#X obj 98 27 t b b;
#X connect 0 0 1 0;
#X connect 1 0 2 0;
#X connect 1 0 3 0;
#X connect 1 0 5 0;
#X connect 2 0 1 1;
#X connect 3 0 0 1;
#X connect 4 0 11 0;
#X connect 4 0 9 0;
#X connect 5 0 10 0;
#X connect 6 0 0 0;
#X connect 6 1 7 0;
#X connect 6 1 14 0;
#X connect 7 0 5 1;
#X connect 9 0 1 1;
#X connect 10 0 12 0;
#X connect 11 0 12 0;
#X connect 14 0 3 1;
#X connect 15 0 16 0;
#X connect 16 0 6 0;
#X connect 16 1 14 0;
#X restore 136 503 pd \$0-grains;
#X obj 302 543 print;
#X obj 143 444 f 100;
#X connect 2 0 10 0;
#X connect 3 0 28 1;
#X connect 4 0 3 1;
#X connect 5 0 6 0;
#X connect 6 0 27 0;
#X connect 7 0 8 0;
#X connect 8 0 28 2;
#X connect 9 0 28 4;
#X connect 10 0 18 0;
#X connect 10 1 15 0;
#X connect 10 2 7 0;
#X connect 10 3 5 0;
#X connect 10 4 9 0;
#X connect 12 0 2 0;
#X connect 13 0 0 0;
#X connect 14 0 15 1;
#X connect 15 0 3 0;
#X connect 16 0 15 2;
#X connect 17 0 15 3;
#X connect 18 0 19 0;
#X connect 18 0 21 0;
#X connect 19 0 18 1;
#X connect 20 0 18 1;
#X connect 21 0 28 0;
#X connect 21 1 33 0;
#X connect 22 0 9 1;
#X connect 22 0 9 2;
#X connect 23 0 7 1;
#X connect 24 0 2 1;
#X connect 25 0 2 2;
#X connect 26 0 6 1;
#X connect 27 0 28 3;
#X connect 28 0 36 0;
#X connect 29 0 30 0;
#X connect 30 0 31 0;
#X connect 30 0 34 0;
#X connect 30 0 39 0;
#X connect 31 0 30 1;
#X connect 32 0 40 0;
#X connect 33 0 20 0;
#X connect 34 0 29 1;
#X connect 35 0 47 0;
#X connect 35 0 45 0;
#X connect 35 0 20 0;
#X connect 37 0 11 0;
#X connect 38 0 11 1;
#X connect 39 0 46 0;
#X connect 40 0 29 0;
#X connect 40 1 41 0;
#X connect 40 1 51 0;
#X connect 41 0 39 1;
#X connect 45 0 30 1;
#X connect 46 0 48 0;
#X connect 46 0 50 0;
#X connect 47 0 48 0;
#X connect 51 0 33 1;
#X connect 51 0 34 1;
