#N canvas 0 52 958 1026 10;
#X obj 114 108 unpack f f f f;
#X msg 104 221 \$1 0 0 \, \$2 \$3 0;
#X obj 211 130 samplerate~;
#X obj 114 132 *;
#X obj 142 152 *;
#X obj 142 132 / 1000;
#X obj 127 177 +;
#X obj 105 153 t f f;
#X obj 104 200 pack f f f;
#X obj 104 242 vline~;
#X obj 104 285 *~;
#X obj 223 221 + 100;
#X obj 223 241 dbtorms;
#X obj 104 377 *~;
#X obj 139 378 *~;
#X obj 16 242 vline~;
#X obj 16 263 cos~;
#X obj 16 283 *~ -1;
#X obj 16 303 +~ 1;
#X obj 16 323 clip~ 0 1;
#X obj 104 306 *~;
#X text 13 339 Tukey window;
#X text 154 60 <-- [position[s] duration[ms] gain pan(;
#X msg 16 221 0 0 0 \, 1 \$1 0;
#X text 17 11 play a grain from an array \, throwing the result;
#X obj 211 105 t b;
#X obj 228 288 expr sqrt(1 - $f1);
#X obj 195 288 sqrt;
#X text 16 26 creation args: id \, array;
#X obj 104 263 tabread4~ \$2;
#X obj 77 400 outlet~;
#X obj 139 400 outlet~;
#X obj 113 61 inlet;
#X obj 113 83 t a b;
#X connect 0 0 3 0;
#X connect 0 1 5 0;
#X connect 0 1 8 2;
#X connect 0 1 23 0;
#X connect 0 2 11 0;
#X connect 0 3 26 0;
#X connect 0 3 27 0;
#X connect 1 0 9 0;
#X connect 2 0 3 1;
#X connect 2 0 4 1;
#X connect 3 0 7 0;
#X connect 4 0 6 1;
#X connect 5 0 4 0;
#X connect 6 0 8 1;
#X connect 7 0 8 0;
#X connect 7 1 6 0;
#X connect 8 0 1 0;
#X connect 9 0 29 0;
#X connect 10 0 20 0;
#X connect 11 0 12 0;
#X connect 12 0 10 1;
#X connect 13 0 30 0;
#X connect 14 0 31 0;
#X connect 15 0 16 0;
#X connect 16 0 17 0;
#X connect 17 0 18 0;
#X connect 18 0 19 0;
#X connect 19 0 20 1;
#X connect 20 0 13 0;
#X connect 20 0 14 0;
#X connect 23 0 15 0;
#X connect 25 0 2 0;
#X connect 26 0 14 1;
#X connect 27 0 13 1;
#X connect 29 0 10 0;
#X connect 32 0 33 0;
#X connect 33 0 0 0;
#X connect 33 1 25 0;
