#N canvas 0 47 958 1031 12;
#X obj 106 83 log 2;
#X msg 106 59 3;
#X obj 106 108 f;
#X obj 149 25 loadbang;
#X obj 149 83 log 2;
#X obj 149 108 f;
#X msg 149 59 5;
#X obj 192 83 log 2;
#X obj 192 108 f;
#X msg 192 59 7;
#X obj 105 135 inlet mu;
#X obj 105 160 unpack 0 0 0 0;
#X obj 210 160 unpack 0 0 0 0;
#X obj 210 135 inlet sigma;
#X obj 105 205 normalR;
#X obj 105 230 *;
#X obj 105 255 +;
#X obj 162 205 normalR;
#X obj 162 230 *;
#X obj 162 255 +;
#X obj 219 205 normalR;
#X obj 219 230 *;
#X obj 219 255 +;
#X obj 276 205 normalR;
#X obj 276 230 *;
#X obj 276 255 +;
#X obj 162 280 t f f;
#X obj 219 280 t f f;
#X obj 276 280 t f f;
#X obj 176 306 *;
#X obj 233 306 *;
#X obj 290 306 *;
#X obj 105 280 -;
#X obj 105 305 -;
#X obj 105 330 -;
#X obj 162 381 *;
#X obj 219 381 *;
#X obj 276 381 *;
#X obj 105 381 +;
#X obj 105 406 +;
#X obj 105 431 +;
#X obj 105 355 round;
#X obj 162 355 round;
#X obj 219 355 round;
#X obj 276 355 round;
#X obj 87 456 pow;
#X msg 51 456 2;
#X obj 20 160 t b b b b b;
#X obj 87 481 outlet;
#X text 367 52 Random frequency with a "just" distribution.;
#X obj 20 134 inlet bang;
#X text 365 74 Inlets: bang \, mu \, sigma;
#X text 365 95 where mu \, sigma are location and scale (diagonal)
of a gaussian distribution with coordinates corresponding to factors
2 \, 3 \, 5 \, 7 (note: shorter lists are fine);
#X connect 0 0 2 0;
#X connect 1 0 0 0;
#X connect 2 0 29 1;
#X connect 2 0 35 1;
#X connect 3 0 1 0;
#X connect 3 0 6 0;
#X connect 3 0 9 0;
#X connect 4 0 5 0;
#X connect 5 0 30 1;
#X connect 5 0 36 1;
#X connect 6 0 4 0;
#X connect 7 0 8 0;
#X connect 8 0 31 1;
#X connect 8 0 37 1;
#X connect 9 0 7 0;
#X connect 10 0 11 0;
#X connect 11 0 16 1;
#X connect 11 1 19 1;
#X connect 11 2 22 1;
#X connect 11 3 25 1;
#X connect 12 0 15 1;
#X connect 12 1 18 1;
#X connect 12 2 21 1;
#X connect 12 3 24 1;
#X connect 13 0 12 0;
#X connect 14 0 15 0;
#X connect 15 0 16 0;
#X connect 16 0 32 0;
#X connect 17 0 18 0;
#X connect 18 0 19 0;
#X connect 19 0 26 0;
#X connect 20 0 21 0;
#X connect 21 0 22 0;
#X connect 22 0 27 0;
#X connect 23 0 24 0;
#X connect 24 0 25 0;
#X connect 25 0 28 0;
#X connect 26 0 42 0;
#X connect 26 1 29 0;
#X connect 27 0 43 0;
#X connect 27 1 30 0;
#X connect 28 0 44 0;
#X connect 28 1 31 0;
#X connect 29 0 32 1;
#X connect 30 0 33 1;
#X connect 31 0 34 1;
#X connect 32 0 33 0;
#X connect 33 0 34 0;
#X connect 34 0 41 0;
#X connect 35 0 38 1;
#X connect 36 0 39 1;
#X connect 37 0 40 1;
#X connect 38 0 39 0;
#X connect 39 0 40 0;
#X connect 40 0 45 1;
#X connect 41 0 38 0;
#X connect 42 0 35 0;
#X connect 43 0 36 0;
#X connect 44 0 37 0;
#X connect 45 0 48 0;
#X connect 46 0 45 0;
#X connect 47 0 46 0;
#X connect 47 1 14 0;
#X connect 47 2 17 0;
#X connect 47 3 20 0;
#X connect 47 4 23 0;
#X connect 50 0 47 0;
