#N canvas 0 47 958 1031 12;
#X obj 161 116 i;
#X obj 264 44 + 1;
#X msg 179 90 0;
#X obj 161 167 + 1;
#X obj 161 142 t f f;
#X obj 228 139 select \$1;
#X obj 179 63 loadbang;
#X obj 16 11 inlet freq;
#X obj 101 11 inlet amp;
#X obj 101 37 * 128;
#X obj 101 63 clip 0 127;
#X obj 228 116 clip 0 \$1;
#X obj 16 35 ftom;
#X obj 97 111 wrap;
#X obj 97 134 * 4096;
#X obj 16 196 noteout;
#X obj 97 196 bendout;
#X text 16 225 microtonal midi output over \$1 channels;
#X obj 177 197 pgmout;
#X obj 176 11 inlet program;
#X obj 228 166 f;
#X obj 16 60 t f f b b;
#X obj 264 69 select 9;
#X msg 264 92 10;
#X text 331 70 skip channel 9 (bank 128);
#X connect 0 0 4 0;
#X connect 1 0 22 0;
#X connect 2 0 0 1;
#X connect 3 0 15 2;
#X connect 3 0 16 1;
#X connect 3 0 18 1;
#X connect 4 0 3 0;
#X connect 4 1 1 0;
#X connect 5 0 2 0;
#X connect 6 0 2 0;
#X connect 7 0 12 0;
#X connect 8 0 9 0;
#X connect 9 0 10 0;
#X connect 10 0 15 1;
#X connect 11 0 0 1;
#X connect 11 0 5 0;
#X connect 12 0 21 0;
#X connect 13 0 14 0;
#X connect 14 0 16 0;
#X connect 19 0 20 1;
#X connect 20 0 18 0;
#X connect 21 0 15 0;
#X connect 21 1 13 0;
#X connect 21 2 20 0;
#X connect 21 3 0 0;
#X connect 22 0 23 0;
#X connect 22 1 11 0;
#X connect 23 0 11 0;
