#N canvas 0 52 958 1026 10;
#X obj 80 103 uniformR;
#X obj 145 102 uniformR;
#X obj 80 129 expr ($f1*2)-1;
#X obj 180 128 expr ($f1*2)-1;
#X obj 80 261 spigot;
#X obj 143 157 expr $f1*$f1 + $f2*$f2;
#X obj 113 187 < 1;
#X obj 143 187 expr sqrt(-2*log($f1)/$f1);
#X obj 80 226 *;
#X obj 80 25 inlet;
#X obj 80 319 outlet;
#X text 77 2 standard normal ranodm variate (Marsaglia polar method)
;
#X obj 80 74 until;
#X obj 80 284 t f b;
#X obj 80 50 t b;
#X connect 0 0 2 0;
#X connect 1 0 3 0;
#X connect 2 0 5 0;
#X connect 2 0 8 0;
#X connect 3 0 5 1;
#X connect 4 0 13 0;
#X connect 5 0 6 0;
#X connect 5 0 7 0;
#X connect 6 0 4 1;
#X connect 7 0 8 1;
#X connect 8 0 4 0;
#X connect 9 0 14 0;
#X connect 12 0 0 0;
#X connect 12 0 1 0;
#X connect 13 0 10 0;
#X connect 13 1 12 1;
#X connect 14 0 12 0;
